<?xml version="1.0" encoding="UTF-8" standalone="no"?>
<!-- Created with Inkscape (http://www.inkscape.org/) -->

<svg
   width="200mm"
   height="200mm"
   viewBox="0 0 210 297"
   version="1.1"
   id="svg1205"
   sodipodi:docname="hand.svg"
   inkscape:version="1.2.1 (9c6d41e, 2022-07-14)"
   xmlns:inkscape="http://www.inkscape.org/namespaces/inkscape"
   xmlns:sodipodi="http://sodipodi.sourceforge.net/DTD/sodipodi-0.dtd"
   xmlns="http://www.w3.org/2000/svg"
   xmlns:svg="http://www.w3.org/2000/svg">
  <sodipodi:namedview
     id="namedview74"
     pagecolor="#ffffff"
     bordercolor="#000000"
     borderopacity="0.25"
     inkscape:showpageshadow="2"
     inkscape:pageopacity="0.0"
     inkscape:pagecheckerboard="0"
     inkscape:deskcolor="#d1d1d1"
     inkscape:document-units="mm"
     showgrid="false"
     inkscape:zoom="0.2102413"
     inkscape:cx="-435.2142"
     inkscape:cy="563.63806"
     inkscape:window-width="1512"
     inkscape:window-height="859"
     inkscape:window-x="0"
     inkscape:window-y="38"
     inkscape:window-maximized="1"
     inkscape:current-layer="svg1205" />
  <defs
     id="defs1202" />
  <g
     id="layer1"
     style="stroke:#ffffff;stroke-opacity:1">
    <path
       style="display:inline;fill:none;stroke:#ffffff;stroke-width:0.538993px;stroke-linecap:butt;stroke-linejoin:miter;stroke-opacity:1"
       d="m 135.30979,69.030363 25.00597,-15.685114 61.92579,-33.036662 c 14.09269,9.066143 2.58063,36.633467 1.95073,53.954158 l -31.83054,26.211785 -7.88116,23.26807 -16.68194,6.80722 -7.9685,0.32396 -12.09253,8.93563 -14.34942,8.83592 -9.87071,-3.6486 -4.67598,-13.72262 7.10422,-11.43921 9.84153,-8.34687 22.42267,-2.16096 -21.75794,2.19861 -9.20592,4.18997 -8.3531,10.78407 -14.35294,4.75899 -13.837789,7.18619 -11.477973,13.60456 -15.167654,7.58483 -8.751349,-2.03456 -4.573683,-7.67084 12.642615,-17.51999 9.068408,-14.25842 22.94922,-22.522545 22.821495,-9.03363 -22.950071,9.28888 -22.574908,22.172375 -9.648278,14.53076 -12.108931,16.69563 1.655669,3.51411 -15.492117,9.21531 -14.24208,-5.8925 0.284363,-3.46578 21.007967,-30.22068 15.808401,-17.97309 -16.792876,19.25047 -16.937848,24.08441 -6.092677,-0.81411 -5.345739,-8.99127 26.794224,-26.90125 21.940983,-16.135775 36.500858,-16.70073 6.20055,-5.9375 14.8794,-2.839682 2.10667,1.663012 z"
       id="path936" />
  </g>
</svg>
