<?xml version="1.0" encoding="UTF-8" standalone="no"?>
<!-- Created with Inkscape (http://www.inkscape.org/) -->

<svg
   width="407"
   height="289"
   viewBox="0 0 113.06969 113.5499"
   version="1.1"
   id="svg5"
   xml:space="preserve"
   sodipodi:docname="turtle.svg"
   inkscape:version="1.2.1 (9c6d41e, 2022-07-14)"
   inkscape:export-filename="../Desktop/turtle.svg"
   inkscape:export-xdpi="96"
   inkscape:export-ydpi="96"
   xmlns:inkscape="http://www.inkscape.org/namespaces/inkscape"
   xmlns:sodipodi="http://sodipodi.sourceforge.net/DTD/sodipodi-0.dtd"
   xmlns="http://www.w3.org/2000/svg"
   xmlns:svg="http://www.w3.org/2000/svg"><sodipodi:namedview
     id="namedview46"
     pagecolor="#ffffff"
     bordercolor="#000000"
     borderopacity="0.25"
     inkscape:showpageshadow="2"
     inkscape:pageopacity="0.0"
     inkscape:pagecheckerboard="0"
     inkscape:deskcolor="#d1d1d1"
     inkscape:document-units="mm"
     showgrid="false"
     inkscape:zoom="1.1475701"
     inkscape:cx="463.58824"
     inkscape:cy="295.84249"
     inkscape:window-width="1512"
     inkscape:window-height="859"
     inkscape:window-x="0"
     inkscape:window-y="38"
     inkscape:window-maximized="1"
     inkscape:current-layer="svg5" /><defs
     id="defs2" /><g
     id="layer3-7"
     transform="translate(-39.690749,-142.24075)"
     style="stroke:#ffffff;stroke-opacity:1"
     inkscape:export-filename="../Desktop/turtle.svg"
     inkscape:export-xdpi="96"
     inkscape:export-ydpi="96"><path
       style="fill:none;stroke:#ffffff;stroke-width:0.56283px;stroke-linecap:butt;stroke-linejoin:miter;stroke-opacity:1"
       d="m 16.601934,216.50483 7.395974,7.79772 7.658571,-0.13918 6.061221,-2.96489 54.885038,17.27818 0.07869,12.72216 11.712602,4.46619 11.84653,-2.59257 6.43033,-8.9895 -7.83955,-14.20738 23.52331,-5.56261 13.53323,-9.6962 c 0.6873,-3.82334 4.15443,-12.9084 4.04781,-15.12129 l 19.78336,-5.44231 -2.43472,-6.94963 -6.77985,-4.76415 -9.65196,1.75365 -2.37064,-10.09718 -11.08242,-13.87207 -13.36277,-10.65266 -21.42482,-6.91466 -24.457917,2.3368 -16.047877,6.56447 -16.454051,13.64485 -10.029838,16.71403 -2.738873,23.44956 -15.070728,2.20581 -6.340835,4.782 z"
       id="path1035-3" /><path
       style="opacity:1;fill:none;stroke:#ffffff;stroke-width:0.538993px;stroke-linecap:butt;stroke-linejoin:miter;stroke-dasharray:none;stroke-opacity:1"
       d="m 53.620682,220.64222 -2.827659,-15.21609 6.589517,-14.5518 16.246554,-2.69959 15.150909,11.45872 1.652937,11.24378 -2.035311,10.83897 -6.681849,10.23343 -25.820118,-8.10235 z"
       id="path1039-7" /><path
       style="opacity:1;fill:none;stroke:#ffffff;stroke-width:0.538993px;stroke-linecap:butt;stroke-linejoin:miter;stroke-dasharray:none;stroke-opacity:1"
       d="m 61.395948,197.75397 13.031521,-2.2967 9.529548,10.16033 0.661272,10.03466 -6.577345,8.93023 -8.310017,-0.35576 -9.657813,-3.79619 -3.368708,-12.47478 z"
       id="path1037-9" /></g></svg>
